<svg viewBox="0 0 200 200" xmlns="http://www.w3.org/2000/svg"><path d="M24 100 C30 68 40 78 47 100" fill="none" stroke="#8B95A5" stroke-width="3.2" stroke-linecap="round"/><path d="M47 100 C51 126 60 114 65 100" fill="none" stroke="#8B95A5" stroke-width="2.4" stroke-linecap="round"/><path d="M65 100 C69 86 75 94 80 100 C83 103 85 98 88 100" fill="none" stroke="#8B95A5" stroke-width="1.6" stroke-linecap="round"/><circle cx="24" cy="100" r="3.6" fill="#0B1420"/><circle cx="47" cy="100" r="3" fill="#0B1420"/><circle cx="65" cy="100" r="2.4" fill="#0B1420"/><circle cx="98.5" cy="76.0" r="1.90" fill="#0B1420"/><circle cx="98.5" cy="88.0" r="2.65" fill="#0B1420"/><circle cx="98.5" cy="100.0" r="3.40" fill="#0B1420"/><circle cx="98.5" cy="112.0" r="2.65" fill="#0B1420"/><circle cx="98.5" cy="124.0" r="1.90" fill="#0B1420"/><path d="M112 76 L134 100 L112 124" fill="none" stroke="#0B1420" stroke-width="3" stroke-linecap="round" stroke-linejoin="round"/><line x1="134" y1="100" x2="160" y2="100" stroke="#0B1420" stroke-width="3" stroke-linecap="round"/><line x1="168" y1="100" x2="180" y2="100" stroke="#E07B30" stroke-width="4.5" stroke-linecap="round"/></svg>